{
    "asset" : {
        "generator" : "Khronos glTF Blender I/O v1.0.5",
        "version" : "2.0"
    },
    "scene" : 0,
    "scenes" : [
        {
            "extras" : {
                "blenderkitUI" : {
                    "assetbar_on" : 0,
                    "turn_off" : 0
                },
                "uuid" : "b910c783-ee8e-4b9b-99e5-5e50339d92eb",
                "glTF2ExportSettings" : {
                    "export_extras" : 1,
                    "export_format" : "GLTF_SEPARATE",
                    "export_selected" : 1
                }
            },
            "name" : "Scene",
            "nodes" : [
                0,
                1
            ]
        }
    ],
    "nodes" : [
        {
            "mesh" : 0,
            "name" : "PAN_PLATE_A2_bottom.005"
        },
        {
            "mesh" : 1,
            "name" : "PAN_044_top.001"
        }
    ],
    "materials" : [
        {
            "doubleSided" : true,
            "emissiveFactor" : [
                1,
                1,
                1
            ],
            "emissiveTexture" : {
                "index" : 0,
                "texCoord" : 0
            },
            "name" : "PAN_044_PLATE_baked.004",
            "pbrMetallicRoughness" : {
                "baseColorFactor" : [
                    1,
                    1,
                    1,
                    1
                ],
                "baseColorTexture" : {
                    "index" : 1,
                    "texCoord" : 0
                },
                "metallicFactor" : 1,
                "roughnessFactor" : 1
            }
        },
        {
            "doubleSided" : true,
            "emissiveFactor" : [
                1,
                1,
                1
            ],
            "emissiveTexture" : {
                "index" : 2,
                "texCoord" : 0
            },
            "name" : "PAN_044_baked.004",
            "pbrMetallicRoughness" : {
                "baseColorFactor" : [
                    1,
                    1,
                    1,
                    1
                ],
                "baseColorTexture" : {
                    "index" : 3,
                    "texCoord" : 0
                },
                "metallicFactor" : 1,
                "roughnessFactor" : 1
            }
        }
    ],
    "meshes" : [
        {
            "name" : "Mesh.012",
            "primitives" : [
                {
                    "attributes" : {
                        "POSITION" : 0,
                        "NORMAL" : 1,
                        "TEXCOORD_0" : 2
                    },
                    "indices" : 3,
                    "material" : 0
                }
            ]
        },
        {
            "name" : "Mesh.013",
            "primitives" : [
                {
                    "attributes" : {
                        "POSITION" : 4,
                        "NORMAL" : 5,
                        "TEXCOORD_0" : 6
                    },
                    "indices" : 7,
                    "material" : 1
                },
                {
                    "attributes" : {
                        "POSITION" : 8,
                        "NORMAL" : 9,
                        "TEXCOORD_0" : 10
                    },
                    "indices" : 11,
                    "material" : 1
                },
                {
                    "attributes" : {
                        "POSITION" : 12,
                        "NORMAL" : 13,
                        "TEXCOORD_0" : 14
                    },
                    "indices" : 15,
                    "material" : 1
                },
                {
                    "attributes" : {
                        "POSITION" : 16,
                        "NORMAL" : 17,
                        "TEXCOORD_0" : 18
                    },
                    "indices" : 19,
                    "material" : 1
                }
            ]
        }
    ],
    "textures" : [
        {
            "source" : 0
        },
        {
            "source" : 0
        },
        {
            "source" : 1
        },
        {
            "source" : 1
        }
    ],
    "images" : [
        {
            "mimeType" : "image/png",
            "name" : "PAN_044_PLATE_baked",
            "uri" : "PAN_044_PLATE_baked.png"
        },
        {
            "mimeType" : "image/png",
            "name" : "PAN_044_baked",
            "uri" : "PAN_044_baked.png"
        }
    ],
    "accessors" : [
        {
            "bufferView" : 0,
            "componentType" : 5126,
            "count" : 5193,
            "max" : [
                0.29869344830513,
                0.010618884116411209,
                0.3081544041633606
            ],
            "min" : [
                -0.30159443616867065,
                0.00022325133613776416,
                -0.2944281995296478
            ],
            "type" : "VEC3"
        },
        {
            "bufferView" : 1,
            "componentType" : 5126,
            "count" : 5193,
            "type" : "VEC3"
        },
        {
            "bufferView" : 2,
            "componentType" : 5126,
            "count" : 5193,
            "type" : "VEC2"
        },
        {
            "bufferView" : 3,
            "componentType" : 5123,
            "count" : 6186,
            "type" : "SCALAR"
        },
        {
            "bufferView" : 4,
            "componentType" : 5126,
            "count" : 65534,
            "max" : [
                0.14379744231700897,
                0.13980929553508759,
                0.15891583263874054
            ],
            "min" : [
                -0.13351581990718842,
                0.06074843555688858,
                -0.11316531896591187
            ],
            "type" : "VEC3"
        },
        {
            "bufferView" : 5,
            "componentType" : 5126,
            "count" : 65534,
            "type" : "VEC3"
        },
        {
            "bufferView" : 6,
            "componentType" : 5126,
            "count" : 65534,
            "type" : "VEC2"
        },
        {
            "bufferView" : 7,
            "componentType" : 5123,
            "count" : 65766,
            "type" : "SCALAR"
        },
        {
            "bufferView" : 8,
            "componentType" : 5126,
            "count" : 65531,
            "max" : [
                0.14379744231700897,
                0.13980929553508759,
                0.15792739391326904
            ],
            "min" : [
                -0.13351581990718842,
                0.06121717765927315,
                -0.11354400217533112
            ],
            "type" : "VEC3"
        },
        {
            "bufferView" : 9,
            "componentType" : 5126,
            "count" : 65531,
            "type" : "VEC3"
        },
        {
            "bufferView" : 10,
            "componentType" : 5126,
            "count" : 65531,
            "type" : "VEC2"
        },
        {
            "bufferView" : 11,
            "componentType" : 5123,
            "count" : 65715,
            "type" : "SCALAR"
        },
        {
            "bufferView" : 12,
            "componentType" : 5126,
            "count" : 34508,
            "max" : [
                0.29926541447639465,
                0.13971219956874847,
                0.30895939469337463
            ],
            "min" : [
                -0.30202922224998474,
                0.007730554323643446,
                -0.29481297731399536
            ],
            "type" : "VEC3"
        },
        {
            "bufferView" : 13,
            "componentType" : 5126,
            "count" : 34508,
            "type" : "VEC3"
        },
        {
            "bufferView" : 14,
            "componentType" : 5126,
            "count" : 34508,
            "type" : "VEC2"
        },
        {
            "bufferView" : 15,
            "componentType" : 5123,
            "count" : 55662,
            "type" : "SCALAR"
        },
        {
            "bufferView" : 16,
            "componentType" : 5126,
            "count" : 6,
            "max" : [
                0.026524851098656654,
                0.09595620632171631,
                0.10999321192502975
            ],
            "min" : [
                -0.0052098724991083145,
                0.0854538232088089,
                0.021208742633461952
            ],
            "type" : "VEC3"
        },
        {
            "bufferView" : 17,
            "componentType" : 5126,
            "count" : 6,
            "type" : "VEC3"
        },
        {
            "bufferView" : 18,
            "componentType" : 5126,
            "count" : 6,
            "type" : "VEC2"
        },
        {
            "bufferView" : 19,
            "componentType" : 5123,
            "count" : 6,
            "type" : "SCALAR"
        }
    ],
    "bufferViews" : [
        {
            "buffer" : 0,
            "byteLength" : 62316,
            "byteOffset" : 0
        },
        {
            "buffer" : 0,
            "byteLength" : 62316,
            "byteOffset" : 62316
        },
        {
            "buffer" : 0,
            "byteLength" : 41544,
            "byteOffset" : 124632
        },
        {
            "buffer" : 0,
            "byteLength" : 12372,
            "byteOffset" : 166176
        },
        {
            "buffer" : 0,
            "byteLength" : 786408,
            "byteOffset" : 178548
        },
        {
            "buffer" : 0,
            "byteLength" : 786408,
            "byteOffset" : 964956
        },
        {
            "buffer" : 0,
            "byteLength" : 524272,
            "byteOffset" : 1751364
        },
        {
            "buffer" : 0,
            "byteLength" : 131532,
            "byteOffset" : 2275636
        },
        {
            "buffer" : 0,
            "byteLength" : 786372,
            "byteOffset" : 2407168
        },
        {
            "buffer" : 0,
            "byteLength" : 786372,
            "byteOffset" : 3193540
        },
        {
            "buffer" : 0,
            "byteLength" : 524248,
            "byteOffset" : 3979912
        },
        {
            "buffer" : 0,
            "byteLength" : 131430,
            "byteOffset" : 4504160
        },
        {
            "buffer" : 0,
            "byteLength" : 414096,
            "byteOffset" : 4635592
        },
        {
            "buffer" : 0,
            "byteLength" : 414096,
            "byteOffset" : 5049688
        },
        {
            "buffer" : 0,
            "byteLength" : 276064,
            "byteOffset" : 5463784
        },
        {
            "buffer" : 0,
            "byteLength" : 111324,
            "byteOffset" : 5739848
        },
        {
            "buffer" : 0,
            "byteLength" : 72,
            "byteOffset" : 5851172
        },
        {
            "buffer" : 0,
            "byteLength" : 72,
            "byteOffset" : 5851244
        },
        {
            "buffer" : 0,
            "byteLength" : 48,
            "byteOffset" : 5851316
        },
        {
            "buffer" : 0,
            "byteLength" : 12,
            "byteOffset" : 5851364
        }
    ],
    "buffers" : [
        {
            "byteLength" : 5851376,
            "uri" : "044_v4.bin"
        }
    ]
}
