{
    "asset" : {
        "generator" : "Khronos glTF Blender I/O v1.0.5",
        "version" : "2.0"
    },
    "scene" : 0,
    "scenes" : [
        {
            "extras" : {
                "blenderkitUI" : {
                    "assetbar_on" : 0,
                    "turn_off" : 0
                },
                "uuid" : "b910c783-ee8e-4b9b-99e5-5e50339d92eb",
                "glTF2ExportSettings" : {
                    "export_extras" : 1,
                    "export_format" : "GLTF_SEPARATE",
                    "export_selected" : 1
                }
            },
            "name" : "Scene",
            "nodes" : [
                0,
                1
            ]
        }
    ],
    "nodes" : [
        {
            "mesh" : 0,
            "name" : "PAN_PLATE_A2_bottom.003"
        },
        {
            "mesh" : 1,
            "name" : "PAN_035_pro.000"
        }
    ],
    "materials" : [
        {
            "doubleSided" : true,
            "emissiveFactor" : [
                1,
                1,
                1
            ],
            "emissiveTexture" : {
                "index" : 0,
                "texCoord" : 0
            },
            "name" : "PAN_035_PLATE_baked.000",
            "pbrMetallicRoughness" : {
                "baseColorFactor" : [
                    1,
                    1,
                    1,
                    1
                ],
                "baseColorTexture" : {
                    "index" : 1,
                    "texCoord" : 0
                },
                "metallicFactor" : 1,
                "roughnessFactor" : 1
            }
        },
        {
            "doubleSided" : true,
            "emissiveFactor" : [
                1,
                1,
                1
            ],
            "emissiveTexture" : {
                "index" : 2,
                "texCoord" : 0
            },
            "name" : "PAN_035_baked.000",
            "pbrMetallicRoughness" : {
                "baseColorFactor" : [
                    1,
                    1,
                    1,
                    1
                ],
                "baseColorTexture" : {
                    "index" : 3,
                    "texCoord" : 0
                },
                "metallicFactor" : 1,
                "roughnessFactor" : 1
            }
        }
    ],
    "meshes" : [
        {
            "name" : "Mesh.008",
            "primitives" : [
                {
                    "attributes" : {
                        "POSITION" : 0,
                        "NORMAL" : 1,
                        "TEXCOORD_0" : 2
                    },
                    "indices" : 3,
                    "material" : 0
                }
            ]
        },
        {
            "name" : "Mesh.009",
            "primitives" : [
                {
                    "attributes" : {
                        "POSITION" : 4,
                        "NORMAL" : 5,
                        "TEXCOORD_0" : 6
                    },
                    "indices" : 7,
                    "material" : 1
                },
                {
                    "attributes" : {
                        "POSITION" : 8,
                        "NORMAL" : 9,
                        "TEXCOORD_0" : 10
                    },
                    "indices" : 11,
                    "material" : 1
                },
                {
                    "attributes" : {
                        "POSITION" : 12,
                        "NORMAL" : 13,
                        "TEXCOORD_0" : 14
                    },
                    "indices" : 15,
                    "material" : 1
                },
                {
                    "attributes" : {
                        "POSITION" : 16,
                        "NORMAL" : 17,
                        "TEXCOORD_0" : 18
                    },
                    "indices" : 19,
                    "material" : 1
                }
            ]
        }
    ],
    "textures" : [
        {
            "source" : 0
        },
        {
            "source" : 0
        },
        {
            "source" : 1
        },
        {
            "source" : 1
        }
    ],
    "images" : [
        {
            "mimeType" : "image/png",
            "name" : "PAN_035_PLATE_baked",
            "uri" : "PAN_035_PLATE_baked.png"
        },
        {
            "mimeType" : "image/png",
            "name" : "PAN_035_baked",
            "uri" : "PAN_035_baked.png"
        }
    ],
    "accessors" : [
        {
            "bufferView" : 0,
            "componentType" : 5126,
            "count" : 5172,
            "max" : [
                0.3112638592720032,
                0.011065849103033543,
                0.321122944355011
            ],
            "min" : [
                -0.3142869472503662,
                0.0002327355759916827,
                -0.3068190813064575
            ],
            "type" : "VEC3"
        },
        {
            "bufferView" : 1,
            "componentType" : 5126,
            "count" : 5172,
            "type" : "VEC3"
        },
        {
            "bufferView" : 2,
            "componentType" : 5126,
            "count" : 5172,
            "type" : "VEC2"
        },
        {
            "bufferView" : 3,
            "componentType" : 5123,
            "count" : 6186,
            "type" : "SCALAR"
        },
        {
            "bufferView" : 4,
            "componentType" : 5126,
            "count" : 65535,
            "max" : [
                0.13851116597652435,
                0.11312152445316315,
                0.15125532448291779
            ],
            "min" : [
                -0.15415216982364655,
                0.06109882891178131,
                -0.1451970785856247
            ],
            "type" : "VEC3"
        },
        {
            "bufferView" : 5,
            "componentType" : 5126,
            "count" : 65535,
            "type" : "VEC3"
        },
        {
            "bufferView" : 6,
            "componentType" : 5126,
            "count" : 65535,
            "type" : "VEC2"
        },
        {
            "bufferView" : 7,
            "componentType" : 5123,
            "count" : 65781,
            "type" : "SCALAR"
        },
        {
            "bufferView" : 8,
            "componentType" : 5126,
            "count" : 65533,
            "max" : [
                0.13851116597652435,
                0.11312152445316315,
                0.15125532448291779
            ],
            "min" : [
                -0.154297336935997,
                0.06109882891178131,
                -0.1451970785856247
            ],
            "type" : "VEC3"
        },
        {
            "bufferView" : 9,
            "componentType" : 5126,
            "count" : 65533,
            "type" : "VEC3"
        },
        {
            "bufferView" : 10,
            "componentType" : 5126,
            "count" : 65533,
            "type" : "VEC2"
        },
        {
            "bufferView" : 11,
            "componentType" : 5123,
            "count" : 65733,
            "type" : "SCALAR"
        },
        {
            "bufferView" : 12,
            "componentType" : 5126,
            "count" : 38329,
            "max" : [
                0.31185975670814514,
                0.1123037114739418,
                0.32196176052093506
            ],
            "min" : [
                -0.3147399425506592,
                0.00805586576461792,
                -0.3072199821472168
            ],
            "type" : "VEC3"
        },
        {
            "bufferView" : 13,
            "componentType" : 5126,
            "count" : 38329,
            "type" : "VEC3"
        },
        {
            "bufferView" : 14,
            "componentType" : 5126,
            "count" : 38329,
            "type" : "VEC2"
        },
        {
            "bufferView" : 15,
            "componentType" : 5123,
            "count" : 53661,
            "type" : "SCALAR"
        },
        {
            "bufferView" : 16,
            "componentType" : 5126,
            "count" : 3,
            "max" : [
                -0.10966841131448746,
                0.08974776417016983,
                0.06936682760715485
            ],
            "min" : [
                -0.11078952252864838,
                0.08918730914592743,
                0.06762497127056122
            ],
            "type" : "VEC3"
        },
        {
            "bufferView" : 17,
            "componentType" : 5126,
            "count" : 3,
            "type" : "VEC3"
        },
        {
            "bufferView" : 18,
            "componentType" : 5126,
            "count" : 3,
            "type" : "VEC2"
        },
        {
            "bufferView" : 19,
            "componentType" : 5123,
            "count" : 3,
            "type" : "SCALAR"
        }
    ],
    "bufferViews" : [
        {
            "buffer" : 0,
            "byteLength" : 62064,
            "byteOffset" : 0
        },
        {
            "buffer" : 0,
            "byteLength" : 62064,
            "byteOffset" : 62064
        },
        {
            "buffer" : 0,
            "byteLength" : 41376,
            "byteOffset" : 124128
        },
        {
            "buffer" : 0,
            "byteLength" : 12372,
            "byteOffset" : 165504
        },
        {
            "buffer" : 0,
            "byteLength" : 786420,
            "byteOffset" : 177876
        },
        {
            "buffer" : 0,
            "byteLength" : 786420,
            "byteOffset" : 964296
        },
        {
            "buffer" : 0,
            "byteLength" : 524280,
            "byteOffset" : 1750716
        },
        {
            "buffer" : 0,
            "byteLength" : 131562,
            "byteOffset" : 2274996
        },
        {
            "buffer" : 0,
            "byteLength" : 786396,
            "byteOffset" : 2406560
        },
        {
            "buffer" : 0,
            "byteLength" : 786396,
            "byteOffset" : 3192956
        },
        {
            "buffer" : 0,
            "byteLength" : 524264,
            "byteOffset" : 3979352
        },
        {
            "buffer" : 0,
            "byteLength" : 131466,
            "byteOffset" : 4503616
        },
        {
            "buffer" : 0,
            "byteLength" : 459948,
            "byteOffset" : 4635084
        },
        {
            "buffer" : 0,
            "byteLength" : 459948,
            "byteOffset" : 5095032
        },
        {
            "buffer" : 0,
            "byteLength" : 306632,
            "byteOffset" : 5554980
        },
        {
            "buffer" : 0,
            "byteLength" : 107322,
            "byteOffset" : 5861612
        },
        {
            "buffer" : 0,
            "byteLength" : 36,
            "byteOffset" : 5968936
        },
        {
            "buffer" : 0,
            "byteLength" : 36,
            "byteOffset" : 5968972
        },
        {
            "buffer" : 0,
            "byteLength" : 24,
            "byteOffset" : 5969008
        },
        {
            "buffer" : 0,
            "byteLength" : 6,
            "byteOffset" : 5969032
        }
    ],
    "buffers" : [
        {
            "byteLength" : 5969040,
            "uri" : "035_v4.bin"
        }
    ]
}
