{
    "asset" : {
        "generator" : "Khronos glTF Blender I/O v1.0.5",
        "version" : "2.0"
    },
    "scene" : 0,
    "scenes" : [
        {
            "extras" : {
                "blenderkitUI" : {
                    "assetbar_on" : 0,
                    "turn_off" : 0
                },
                "uuid" : "b910c783-ee8e-4b9b-99e5-5e50339d92eb"
            },
            "name" : "Scene",
            "nodes" : [
                0,
                1
            ]
        }
    ],
    "nodes" : [
        {
            "mesh" : 0,
            "name" : "PAN_PLATE_A2_bottom.001"
        },
        {
            "mesh" : 1,
            "name" : "PAN_035_pro.001"
        }
    ],
    "materials" : [
        {
            "doubleSided" : true,
            "emissiveFactor" : [
                1,
                1,
                1
            ],
            "emissiveTexture" : {
                "index" : 0,
                "texCoord" : 0
            },
            "name" : "PAN_035_PLATE_baked.001",
            "pbrMetallicRoughness" : {
                "baseColorFactor" : [
                    1,
                    1,
                    1,
                    1
                ],
                "baseColorTexture" : {
                    "index" : 1,
                    "texCoord" : 0
                },
                "metallicFactor" : 1,
                "roughnessFactor" : 1
            }
        },
        {
            "doubleSided" : true,
            "emissiveFactor" : [
                1,
                1,
                1
            ],
            "emissiveTexture" : {
                "index" : 2,
                "texCoord" : 0
            },
            "name" : "PAN_035_baked.001",
            "pbrMetallicRoughness" : {
                "baseColorFactor" : [
                    1,
                    1,
                    1,
                    1
                ],
                "baseColorTexture" : {
                    "index" : 3,
                    "texCoord" : 0
                },
                "metallicFactor" : 1,
                "roughnessFactor" : 1
            }
        }
    ],
    "meshes" : [
        {
            "name" : "Mesh.002",
            "primitives" : [
                {
                    "attributes" : {
                        "POSITION" : 0,
                        "NORMAL" : 1,
                        "TEXCOORD_0" : 2
                    },
                    "indices" : 3,
                    "material" : 0
                }
            ]
        },
        {
            "name" : "Mesh.003",
            "primitives" : [
                {
                    "attributes" : {
                        "POSITION" : 4,
                        "NORMAL" : 5,
                        "TEXCOORD_0" : 6
                    },
                    "indices" : 7,
                    "material" : 1
                },
                {
                    "attributes" : {
                        "POSITION" : 8,
                        "NORMAL" : 9,
                        "TEXCOORD_0" : 10
                    },
                    "indices" : 11,
                    "material" : 1
                },
                {
                    "attributes" : {
                        "POSITION" : 12,
                        "NORMAL" : 13,
                        "TEXCOORD_0" : 14
                    },
                    "indices" : 15,
                    "material" : 1
                },
                {
                    "attributes" : {
                        "POSITION" : 16,
                        "NORMAL" : 17,
                        "TEXCOORD_0" : 18
                    },
                    "indices" : 19,
                    "material" : 1
                }
            ]
        }
    ],
    "textures" : [
        {
            "source" : 0
        },
        {
            "source" : 0
        },
        {
            "source" : 1
        },
        {
            "source" : 1
        }
    ],
    "images" : [
        {
            "mimeType" : "image/png",
            "name" : "PAN_035_PLATE_baked",
            "uri" : "PAN_035_PLATE_baked.png"
        },
        {
            "mimeType" : "image/png",
            "name" : "PAN_035_baked",
            "uri" : "PAN_035_baked.png"
        }
    ],
    "accessors" : [
        {
            "bufferView" : 0,
            "componentType" : 5126,
            "count" : 4535,
            "max" : [
                0.1654650866985321,
                0.008926485665142536,
                0.2123589664697647
            ],
            "min" : [
                -0.1590808629989624,
                0.00018765171989798546,
                -0.20279842615127563
            ],
            "type" : "VEC3"
        },
        {
            "bufferView" : 1,
            "componentType" : 5126,
            "count" : 4535,
            "type" : "VEC3"
        },
        {
            "bufferView" : 2,
            "componentType" : 5126,
            "count" : 4535,
            "type" : "VEC2"
        },
        {
            "bufferView" : 3,
            "componentType" : 5123,
            "count" : 6186,
            "type" : "SCALAR"
        },
        {
            "bufferView" : 4,
            "componentType" : 5126,
            "count" : 65534,
            "max" : [
                0.11611402034759521,
                0.09125250577926636,
                0.12564638257026672
            ],
            "min" : [
                -0.12014801800251007,
                0.04928699508309364,
                -0.11217804253101349
            ],
            "type" : "VEC3"
        },
        {
            "bufferView" : 5,
            "componentType" : 5126,
            "count" : 65534,
            "type" : "VEC3"
        },
        {
            "bufferView" : 6,
            "componentType" : 5126,
            "count" : 65534,
            "type" : "VEC2"
        },
        {
            "bufferView" : 7,
            "componentType" : 5123,
            "count" : 66264,
            "type" : "SCALAR"
        },
        {
            "bufferView" : 8,
            "componentType" : 5126,
            "count" : 65532,
            "max" : [
                0.11611402034759521,
                0.09125250577926636,
                0.12564638257026672
            ],
            "min" : [
                -0.12014801800251007,
                0.04928699508309364,
                -0.11203794181346893
            ],
            "type" : "VEC3"
        },
        {
            "bufferView" : 9,
            "componentType" : 5126,
            "count" : 65532,
            "type" : "VEC3"
        },
        {
            "bufferView" : 10,
            "componentType" : 5126,
            "count" : 65532,
            "type" : "VEC2"
        },
        {
            "bufferView" : 11,
            "componentType" : 5123,
            "count" : 66024,
            "type" : "SCALAR"
        },
        {
            "bufferView" : 12,
            "componentType" : 5126,
            "count" : 36492,
            "max" : [
                0.16584527492523193,
                0.09059281647205353,
                0.21281090378761292
            ],
            "min" : [
                -0.15927980840206146,
                0.00649851281195879,
                -0.20317792892456055
            ],
            "type" : "VEC3"
        },
        {
            "bufferView" : 13,
            "componentType" : 5126,
            "count" : 36492,
            "type" : "VEC3"
        },
        {
            "bufferView" : 14,
            "componentType" : 5126,
            "count" : 36492,
            "type" : "VEC2"
        },
        {
            "bufferView" : 15,
            "componentType" : 5123,
            "count" : 52878,
            "type" : "SCALAR"
        },
        {
            "bufferView" : 16,
            "componentType" : 5126,
            "count" : 12,
            "max" : [
                0.022861097007989883,
                0.08178674429655075,
                0.05994551628828049
            ],
            "min" : [
                -0.10311788320541382,
                0.0705665573477745,
                -0.04225362464785576
            ],
            "type" : "VEC3"
        },
        {
            "bufferView" : 17,
            "componentType" : 5126,
            "count" : 12,
            "type" : "VEC3"
        },
        {
            "bufferView" : 18,
            "componentType" : 5126,
            "count" : 12,
            "type" : "VEC2"
        },
        {
            "bufferView" : 19,
            "componentType" : 5123,
            "count" : 12,
            "type" : "SCALAR"
        }
    ],
    "bufferViews" : [
        {
            "buffer" : 0,
            "byteLength" : 54420,
            "byteOffset" : 0
        },
        {
            "buffer" : 0,
            "byteLength" : 54420,
            "byteOffset" : 54420
        },
        {
            "buffer" : 0,
            "byteLength" : 36280,
            "byteOffset" : 108840
        },
        {
            "buffer" : 0,
            "byteLength" : 12372,
            "byteOffset" : 145120
        },
        {
            "buffer" : 0,
            "byteLength" : 786408,
            "byteOffset" : 157492
        },
        {
            "buffer" : 0,
            "byteLength" : 786408,
            "byteOffset" : 943900
        },
        {
            "buffer" : 0,
            "byteLength" : 524272,
            "byteOffset" : 1730308
        },
        {
            "buffer" : 0,
            "byteLength" : 132528,
            "byteOffset" : 2254580
        },
        {
            "buffer" : 0,
            "byteLength" : 786384,
            "byteOffset" : 2387108
        },
        {
            "buffer" : 0,
            "byteLength" : 786384,
            "byteOffset" : 3173492
        },
        {
            "buffer" : 0,
            "byteLength" : 524256,
            "byteOffset" : 3959876
        },
        {
            "buffer" : 0,
            "byteLength" : 132048,
            "byteOffset" : 4484132
        },
        {
            "buffer" : 0,
            "byteLength" : 437904,
            "byteOffset" : 4616180
        },
        {
            "buffer" : 0,
            "byteLength" : 437904,
            "byteOffset" : 5054084
        },
        {
            "buffer" : 0,
            "byteLength" : 291936,
            "byteOffset" : 5491988
        },
        {
            "buffer" : 0,
            "byteLength" : 105756,
            "byteOffset" : 5783924
        },
        {
            "buffer" : 0,
            "byteLength" : 144,
            "byteOffset" : 5889680
        },
        {
            "buffer" : 0,
            "byteLength" : 144,
            "byteOffset" : 5889824
        },
        {
            "buffer" : 0,
            "byteLength" : 96,
            "byteOffset" : 5889968
        },
        {
            "buffer" : 0,
            "byteLength" : 24,
            "byteOffset" : 5890064
        }
    ],
    "buffers" : [
        {
            "byteLength" : 5890088,
            "uri" : "035.bin"
        }
    ]
}
