{
    "asset" : {
        "generator" : "Khronos glTF Blender I/O v1.0.5",
        "version" : "2.0"
    },
    "scene" : 0,
    "scenes" : [
        {
            "extras" : {
                "blenderkitUI" : {
                    "assetbar_on" : 0,
                    "turn_off" : 0
                },
                "uuid" : "b910c783-ee8e-4b9b-99e5-5e50339d92eb"
            },
            "name" : "Scene",
            "nodes" : [
                0,
                1
            ]
        }
    ],
    "nodes" : [
        {
            "extras" : {
                "MaxHandle" : 31
            },
            "mesh" : 0,
            "name" : "PAN_PLATE_A2_bottom"
        },
        {
            "extras" : {
                "MapChannel:1" : "UvCoordinatesAndMapping",
                "MaxHandle" : 45
            },
            "mesh" : 1,
            "name" : "PAN_038_pro"
        }
    ],
    "materials" : [
        {
            "doubleSided" : true,
            "emissiveFactor" : [
                1,
                1,
                1
            ],
            "emissiveTexture" : {
                "index" : 0,
                "texCoord" : 0
            },
            "name" : "PAN_038_PLATE_baked",
            "pbrMetallicRoughness" : {
                "baseColorFactor" : [
                    1,
                    1,
                    1,
                    1
                ],
                "baseColorTexture" : {
                    "index" : 1,
                    "texCoord" : 0
                },
                "metallicFactor" : 1,
                "roughnessFactor" : 1
            }
        },
        {
            "doubleSided" : true,
            "emissiveFactor" : [
                1,
                1,
                1
            ],
            "emissiveTexture" : {
                "index" : 2,
                "texCoord" : 0
            },
            "name" : "PAN_038_baked",
            "pbrMetallicRoughness" : {
                "baseColorFactor" : [
                    1,
                    1,
                    1,
                    1
                ],
                "baseColorTexture" : {
                    "index" : 3,
                    "texCoord" : 0
                },
                "metallicFactor" : 1,
                "roughnessFactor" : 1
            }
        }
    ],
    "meshes" : [
        {
            "name" : "Mesh",
            "primitives" : [
                {
                    "attributes" : {
                        "POSITION" : 0,
                        "NORMAL" : 1,
                        "TEXCOORD_0" : 2
                    },
                    "indices" : 3,
                    "material" : 0
                }
            ]
        },
        {
            "name" : "Mesh.001",
            "primitives" : [
                {
                    "attributes" : {
                        "POSITION" : 4,
                        "NORMAL" : 5,
                        "TEXCOORD_0" : 6
                    },
                    "indices" : 7,
                    "material" : 1
                },
                {
                    "attributes" : {
                        "POSITION" : 8,
                        "NORMAL" : 9,
                        "TEXCOORD_0" : 10
                    },
                    "indices" : 11,
                    "material" : 1
                },
                {
                    "attributes" : {
                        "POSITION" : 12,
                        "NORMAL" : 13,
                        "TEXCOORD_0" : 14
                    },
                    "indices" : 15,
                    "material" : 1
                },
                {
                    "attributes" : {
                        "POSITION" : 16,
                        "NORMAL" : 17,
                        "TEXCOORD_0" : 18
                    },
                    "indices" : 19,
                    "material" : 1
                }
            ]
        }
    ],
    "textures" : [
        {
            "source" : 0
        },
        {
            "source" : 0
        },
        {
            "source" : 1
        },
        {
            "source" : 1
        }
    ],
    "images" : [
        {
            "mimeType" : "image/jpeg",
            "name" : "PAN_038_PLATE_baked",
            "uri" : "PAN_038_PLATE_baked.jpg"
        },
        {
            "mimeType" : "image/jpeg",
            "name" : "PAN_038_baked",
            "uri" : "PAN_038_baked.jpg"
        }
    ],
    "accessors" : [
        {
            "bufferView" : 0,
            "componentType" : 5126,
            "count" : 4448,
            "max" : [
                0.1784009486436844,
                0.009624326601624489,
                0.22896085679531097
            ],
            "min" : [
                -0.17151761054992676,
                0.00020230056543368846,
                -0.2186528891324997
            ],
            "type" : "VEC3"
        },
        {
            "bufferView" : 1,
            "componentType" : 5126,
            "count" : 4448,
            "type" : "VEC3"
        },
        {
            "bufferView" : 2,
            "componentType" : 5126,
            "count" : 4448,
            "type" : "VEC2"
        },
        {
            "bufferView" : 3,
            "componentType" : 5123,
            "count" : 6186,
            "type" : "SCALAR"
        },
        {
            "bufferView" : 4,
            "componentType" : 5126,
            "count" : 65534,
            "max" : [
                0.12631718814373016,
                0.12047536671161652,
                0.13368691504001617
            ],
            "min" : [
                -0.12683619558811188,
                0.06912161409854889,
                -0.12205636501312256
            ],
            "type" : "VEC3"
        },
        {
            "bufferView" : 5,
            "componentType" : 5126,
            "count" : 65534,
            "type" : "VEC3"
        },
        {
            "bufferView" : 6,
            "componentType" : 5126,
            "count" : 65534,
            "type" : "VEC2"
        },
        {
            "bufferView" : 7,
            "componentType" : 5123,
            "count" : 66312,
            "type" : "SCALAR"
        },
        {
            "bufferView" : 8,
            "componentType" : 5126,
            "count" : 65532,
            "max" : [
                0.12631718814373016,
                0.12047536671161652,
                0.13385002315044403
            ],
            "min" : [
                -0.12696227431297302,
                0.06912161409854889,
                -0.12205636501312256
            ],
            "type" : "VEC3"
        },
        {
            "bufferView" : 9,
            "componentType" : 5126,
            "count" : 65532,
            "type" : "VEC3"
        },
        {
            "bufferView" : 10,
            "componentType" : 5126,
            "count" : 65532,
            "type" : "VEC2"
        },
        {
            "bufferView" : 11,
            "componentType" : 5123,
            "count" : 65487,
            "type" : "SCALAR"
        },
        {
            "bufferView" : 12,
            "componentType" : 5126,
            "count" : 22729,
            "max" : [
                0.17881089448928833,
                0.12004811316728592,
                0.22944818437099457
            ],
            "min" : [
                -0.1717320680618286,
                0.007006614003330469,
                -0.21906204521656036
            ],
            "type" : "VEC3"
        },
        {
            "bufferView" : 13,
            "componentType" : 5126,
            "count" : 22729,
            "type" : "VEC3"
        },
        {
            "bufferView" : 14,
            "componentType" : 5126,
            "count" : 22729,
            "type" : "VEC2"
        },
        {
            "bufferView" : 15,
            "componentType" : 5123,
            "count" : 43626,
            "type" : "SCALAR"
        },
        {
            "bufferView" : 16,
            "componentType" : 5126,
            "count" : 2843,
            "max" : [
                0.12202580273151398,
                0.11799487471580505,
                0.13179261982440948
            ],
            "min" : [
                -0.12576870620250702,
                0.07114752382040024,
                -0.11856008321046829
            ],
            "type" : "VEC3"
        },
        {
            "bufferView" : 17,
            "componentType" : 5126,
            "count" : 2843,
            "type" : "VEC3"
        },
        {
            "bufferView" : 18,
            "componentType" : 5126,
            "count" : 2843,
            "type" : "VEC2"
        },
        {
            "bufferView" : 19,
            "componentType" : 5123,
            "count" : 2904,
            "type" : "SCALAR"
        }
    ],
    "bufferViews" : [
        {
            "buffer" : 0,
            "byteLength" : 53376,
            "byteOffset" : 0
        },
        {
            "buffer" : 0,
            "byteLength" : 53376,
            "byteOffset" : 53376
        },
        {
            "buffer" : 0,
            "byteLength" : 35584,
            "byteOffset" : 106752
        },
        {
            "buffer" : 0,
            "byteLength" : 12372,
            "byteOffset" : 142336
        },
        {
            "buffer" : 0,
            "byteLength" : 786408,
            "byteOffset" : 154708
        },
        {
            "buffer" : 0,
            "byteLength" : 786408,
            "byteOffset" : 941116
        },
        {
            "buffer" : 0,
            "byteLength" : 524272,
            "byteOffset" : 1727524
        },
        {
            "buffer" : 0,
            "byteLength" : 132624,
            "byteOffset" : 2251796
        },
        {
            "buffer" : 0,
            "byteLength" : 786384,
            "byteOffset" : 2384420
        },
        {
            "buffer" : 0,
            "byteLength" : 786384,
            "byteOffset" : 3170804
        },
        {
            "buffer" : 0,
            "byteLength" : 524256,
            "byteOffset" : 3957188
        },
        {
            "buffer" : 0,
            "byteLength" : 130974,
            "byteOffset" : 4481444
        },
        {
            "buffer" : 0,
            "byteLength" : 272748,
            "byteOffset" : 4612420
        },
        {
            "buffer" : 0,
            "byteLength" : 272748,
            "byteOffset" : 4885168
        },
        {
            "buffer" : 0,
            "byteLength" : 181832,
            "byteOffset" : 5157916
        },
        {
            "buffer" : 0,
            "byteLength" : 87252,
            "byteOffset" : 5339748
        },
        {
            "buffer" : 0,
            "byteLength" : 34116,
            "byteOffset" : 5427000
        },
        {
            "buffer" : 0,
            "byteLength" : 34116,
            "byteOffset" : 5461116
        },
        {
            "buffer" : 0,
            "byteLength" : 22744,
            "byteOffset" : 5495232
        },
        {
            "buffer" : 0,
            "byteLength" : 5808,
            "byteOffset" : 5517976
        }
    ],
    "buffers" : [
        {
            "byteLength" : 5523784,
            "uri" : "038.bin"
        }
    ]
}
