{
    "asset" : {
        "generator" : "Khronos glTF Blender I/O v1.0.5",
        "version" : "2.0"
    },
    "scene" : 0,
    "scenes" : [
        {
            "extras" : {
                "blenderkitUI" : {
                    "assetbar_on" : 0,
                    "turn_off" : 0
                },
                "uuid" : "b910c783-ee8e-4b9b-99e5-5e50339d92eb",
                "glTF2ExportSettings" : {
                    "export_extras" : 1,
                    "export_format" : "GLTF_SEPARATE",
                    "export_selected" : 1
                }
            },
            "name" : "Scene",
            "nodes" : [
                0,
                1
            ]
        }
    ],
    "nodes" : [
        {
            "mesh" : 0,
            "name" : "PAN_PLATE_A2_bottom.002"
        },
        {
            "mesh" : 1,
            "name" : "PAN_044_top"
        }
    ],
    "materials" : [
        {
            "doubleSided" : true,
            "emissiveFactor" : [
                1,
                1,
                1
            ],
            "emissiveTexture" : {
                "index" : 0,
                "texCoord" : 0
            },
            "name" : "PAN_044_PLATE_baked.003",
            "pbrMetallicRoughness" : {
                "baseColorFactor" : [
                    1,
                    1,
                    1,
                    1
                ],
                "baseColorTexture" : {
                    "index" : 1,
                    "texCoord" : 0
                },
                "metallicFactor" : 1,
                "roughnessFactor" : 1
            }
        },
        {
            "doubleSided" : true,
            "emissiveFactor" : [
                1,
                1,
                1
            ],
            "emissiveTexture" : {
                "index" : 2,
                "texCoord" : 0
            },
            "name" : "PAN_044_baked.003",
            "pbrMetallicRoughness" : {
                "baseColorFactor" : [
                    1,
                    1,
                    1,
                    1
                ],
                "baseColorTexture" : {
                    "index" : 3,
                    "texCoord" : 0
                },
                "metallicFactor" : 1,
                "roughnessFactor" : 1
            }
        }
    ],
    "meshes" : [
        {
            "name" : "Mesh.010",
            "primitives" : [
                {
                    "attributes" : {
                        "POSITION" : 0,
                        "NORMAL" : 1,
                        "TEXCOORD_0" : 2
                    },
                    "indices" : 3,
                    "material" : 0
                }
            ]
        },
        {
            "name" : "Mesh.011",
            "primitives" : [
                {
                    "attributes" : {
                        "POSITION" : 4,
                        "NORMAL" : 5,
                        "TEXCOORD_0" : 6
                    },
                    "indices" : 7,
                    "material" : 1
                },
                {
                    "attributes" : {
                        "POSITION" : 8,
                        "NORMAL" : 9,
                        "TEXCOORD_0" : 10
                    },
                    "indices" : 11,
                    "material" : 1
                },
                {
                    "attributes" : {
                        "POSITION" : 12,
                        "NORMAL" : 13,
                        "TEXCOORD_0" : 14
                    },
                    "indices" : 15,
                    "material" : 1
                },
                {
                    "attributes" : {
                        "POSITION" : 16,
                        "NORMAL" : 17,
                        "TEXCOORD_0" : 18
                    },
                    "indices" : 19,
                    "material" : 1
                }
            ]
        }
    ],
    "textures" : [
        {
            "source" : 0
        },
        {
            "source" : 0
        },
        {
            "source" : 1
        },
        {
            "source" : 1
        }
    ],
    "images" : [
        {
            "mimeType" : "image/png",
            "name" : "PAN_044_PLATE_baked",
            "uri" : "PAN_044_PLATE_baked.png"
        },
        {
            "mimeType" : "image/png",
            "name" : "PAN_044_baked",
            "uri" : "PAN_044_baked.png"
        }
    ],
    "accessors" : [
        {
            "bufferView" : 0,
            "componentType" : 5126,
            "count" : 4535,
            "max" : [
                0.10191145539283752,
                0.005497903563082218,
                0.13079382479190826
            ],
            "min" : [
                -0.0979793518781662,
                0.00011557639663806185,
                -0.12490539997816086
            ],
            "type" : "VEC3"
        },
        {
            "bufferView" : 1,
            "componentType" : 5126,
            "count" : 4535,
            "type" : "VEC3"
        },
        {
            "bufferView" : 2,
            "componentType" : 5126,
            "count" : 4535,
            "type" : "VEC2"
        },
        {
            "bufferView" : 3,
            "componentType" : 5123,
            "count" : 6186,
            "type" : "SCALAR"
        },
        {
            "bufferView" : 4,
            "componentType" : 5126,
            "count" : 65533,
            "max" : [
                0.08184618502855301,
                0.07238609343767166,
                0.07694541662931442
            ],
            "min" : [
                -0.060081109404563904,
                0.03145243227481842,
                -0.06521983444690704
            ],
            "type" : "VEC3"
        },
        {
            "bufferView" : 5,
            "componentType" : 5126,
            "count" : 65533,
            "type" : "VEC3"
        },
        {
            "bufferView" : 6,
            "componentType" : 5126,
            "count" : 65533,
            "type" : "VEC2"
        },
        {
            "bufferView" : 7,
            "componentType" : 5123,
            "count" : 66231,
            "type" : "SCALAR"
        },
        {
            "bufferView" : 8,
            "componentType" : 5126,
            "count" : 65534,
            "max" : [
                0.08201256394386292,
                0.07238609343767166,
                0.07699258625507355
            ],
            "min" : [
                -0.060081109404563904,
                0.03169512748718262,
                -0.06529801338911057
            ],
            "type" : "VEC3"
        },
        {
            "bufferView" : 9,
            "componentType" : 5126,
            "count" : 65534,
            "type" : "VEC3"
        },
        {
            "bufferView" : 10,
            "componentType" : 5126,
            "count" : 65534,
            "type" : "VEC2"
        },
        {
            "bufferView" : 11,
            "componentType" : 5123,
            "count" : 66021,
            "type" : "SCALAR"
        },
        {
            "bufferView" : 12,
            "componentType" : 5126,
            "count" : 33631,
            "max" : [
                0.10214561223983765,
                0.07233582437038422,
                0.13107220828533173
            ],
            "min" : [
                -0.09810188412666321,
                0.0040025003254413605,
                -0.12513917684555054
            ],
            "type" : "VEC3"
        },
        {
            "bufferView" : 13,
            "componentType" : 5126,
            "count" : 33631,
            "type" : "VEC3"
        },
        {
            "bufferView" : 14,
            "componentType" : 5126,
            "count" : 33631,
            "type" : "VEC2"
        },
        {
            "bufferView" : 15,
            "componentType" : 5123,
            "count" : 54891,
            "type" : "SCALAR"
        },
        {
            "bufferView" : 16,
            "componentType" : 5126,
            "count" : 6,
            "max" : [
                0.05147230625152588,
                0.05070677772164345,
                -0.005436369683593512
            ],
            "min" : [
                -0.021203260868787766,
                0.0484125018119812,
                -0.02173909917473793
            ],
            "type" : "VEC3"
        },
        {
            "bufferView" : 17,
            "componentType" : 5126,
            "count" : 6,
            "type" : "VEC3"
        },
        {
            "bufferView" : 18,
            "componentType" : 5126,
            "count" : 6,
            "type" : "VEC2"
        },
        {
            "bufferView" : 19,
            "componentType" : 5123,
            "count" : 6,
            "type" : "SCALAR"
        }
    ],
    "bufferViews" : [
        {
            "buffer" : 0,
            "byteLength" : 54420,
            "byteOffset" : 0
        },
        {
            "buffer" : 0,
            "byteLength" : 54420,
            "byteOffset" : 54420
        },
        {
            "buffer" : 0,
            "byteLength" : 36280,
            "byteOffset" : 108840
        },
        {
            "buffer" : 0,
            "byteLength" : 12372,
            "byteOffset" : 145120
        },
        {
            "buffer" : 0,
            "byteLength" : 786396,
            "byteOffset" : 157492
        },
        {
            "buffer" : 0,
            "byteLength" : 786396,
            "byteOffset" : 943888
        },
        {
            "buffer" : 0,
            "byteLength" : 524264,
            "byteOffset" : 1730284
        },
        {
            "buffer" : 0,
            "byteLength" : 132462,
            "byteOffset" : 2254548
        },
        {
            "buffer" : 0,
            "byteLength" : 786408,
            "byteOffset" : 2387012
        },
        {
            "buffer" : 0,
            "byteLength" : 786408,
            "byteOffset" : 3173420
        },
        {
            "buffer" : 0,
            "byteLength" : 524272,
            "byteOffset" : 3959828
        },
        {
            "buffer" : 0,
            "byteLength" : 132042,
            "byteOffset" : 4484100
        },
        {
            "buffer" : 0,
            "byteLength" : 403572,
            "byteOffset" : 4616144
        },
        {
            "buffer" : 0,
            "byteLength" : 403572,
            "byteOffset" : 5019716
        },
        {
            "buffer" : 0,
            "byteLength" : 269048,
            "byteOffset" : 5423288
        },
        {
            "buffer" : 0,
            "byteLength" : 109782,
            "byteOffset" : 5692336
        },
        {
            "buffer" : 0,
            "byteLength" : 72,
            "byteOffset" : 5802120
        },
        {
            "buffer" : 0,
            "byteLength" : 72,
            "byteOffset" : 5802192
        },
        {
            "buffer" : 0,
            "byteLength" : 48,
            "byteOffset" : 5802264
        },
        {
            "buffer" : 0,
            "byteLength" : 12,
            "byteOffset" : 5802312
        }
    ],
    "buffers" : [
        {
            "byteLength" : 5802324,
            "uri" : "044.bin"
        }
    ]
}
