{
    "asset" : {
        "generator" : "Khronos glTF Blender I/O v1.0.5",
        "version" : "2.0"
    },
    "scene" : 0,
    "scenes" : [
        {
            "extras" : {
                "glTF2ExportSettings" : {
                    "export_extras" : 1,
                    "export_format" : "GLTF_SEPARATE",
                    "export_image_format" : "NAME",
                    "export_selected" : 1
                },
                "blenderkitUI" : {
                    "assetbar_on" : 0,
                    "turn_off" : 0
                }
            },
            "name" : "Scene",
            "nodes" : [
                0,
                1
            ]
        }
    ],
    "nodes" : [
        {
            "extras" : {
                "MaxHandle" : 31
            },
            "mesh" : 0,
            "name" : "PAN_PLATE_A2_bottom",
            "rotation" : [
                0.7071068286895752,
                0,
                0,
                0.7071067094802856
            ],
            "scale" : [
                0.005016995128244162,
                0.005016995128244162,
                0.005016995128244162
            ],
            "translation" : [
                0.02057322859764099,
                0.011143115349113941,
                0.011560140177607536
            ]
        },
        {
            "extras" : {
                "MapChannel:1" : "UvCoordinatesAndMapping",
                "MaxHandle" : 46
            },
            "mesh" : 1,
            "name" : "PAN_044_top",
            "rotation" : [
                -0.0007809119415469468,
                -0.44712895154953003,
                0.0023417461197823286,
                0.8944661021232605
            ],
            "scale" : [
                0.023042980581521988,
                0.02304297871887684,
                0.023042980581521988
            ],
            "translation" : [
                0.05423682928085327,
                0.023075051605701447,
                0.015271014533936977
            ]
        }
    ],
    "animations" : [
        {
            "channels" : [
                {
                    "sampler" : 0,
                    "target" : {
                        "node" : 1,
                        "path" : "translation"
                    }
                },
                {
                    "sampler" : 1,
                    "target" : {
                        "node" : 1,
                        "path" : "rotation"
                    }
                },
                {
                    "sampler" : 2,
                    "target" : {
                        "node" : 1,
                        "path" : "scale"
                    }
                }
            ],
            "name" : "PAN_044_top|Take 001|BaseLayer",
            "samplers" : [
                {
                    "input" : 20,
                    "interpolation" : "STEP",
                    "output" : 21
                },
                {
                    "input" : 20,
                    "interpolation" : "STEP",
                    "output" : 22
                },
                {
                    "input" : 20,
                    "interpolation" : "STEP",
                    "output" : 23
                }
            ]
        }
    ],
    "materials" : [
        {
            "doubleSided" : true,
            "emissiveFactor" : [
                1,
                1,
                1
            ],
            "emissiveTexture" : {
                "index" : 0,
                "texCoord" : 0
            },
            "name" : "PAN_044_PLATE_baked",
            "pbrMetallicRoughness" : {
                "baseColorFactor" : [
                    1,
                    1,
                    1,
                    1
                ],
                "baseColorTexture" : {
                    "index" : 1,
                    "texCoord" : 0
                },
                "metallicFactor" : 1,
                "roughnessFactor" : 1
            }
        },
        {
            "doubleSided" : true,
            "emissiveFactor" : [
                1,
                1,
                1
            ],
            "emissiveTexture" : {
                "index" : 2,
                "texCoord" : 0
            },
            "name" : "PAN_044_baked",
            "pbrMetallicRoughness" : {
                "baseColorFactor" : [
                    1,
                    1,
                    1,
                    1
                ],
                "baseColorTexture" : {
                    "index" : 3,
                    "texCoord" : 0
                },
                "metallicFactor" : 1,
                "roughnessFactor" : 1
            }
        }
    ],
    "meshes" : [
        {
            "name" : "Mesh.008",
            "primitives" : [
                {
                    "attributes" : {
                        "POSITION" : 0,
                        "NORMAL" : 1,
                        "TEXCOORD_0" : 2
                    },
                    "indices" : 3,
                    "material" : 0
                }
            ]
        },
        {
            "name" : "Mesh.009",
            "primitives" : [
                {
                    "attributes" : {
                        "POSITION" : 4,
                        "NORMAL" : 5,
                        "TEXCOORD_0" : 6
                    },
                    "indices" : 7,
                    "material" : 1
                },
                {
                    "attributes" : {
                        "POSITION" : 8,
                        "NORMAL" : 9,
                        "TEXCOORD_0" : 10
                    },
                    "indices" : 11,
                    "material" : 1
                },
                {
                    "attributes" : {
                        "POSITION" : 12,
                        "NORMAL" : 13,
                        "TEXCOORD_0" : 14
                    },
                    "indices" : 15,
                    "material" : 1
                },
                {
                    "attributes" : {
                        "POSITION" : 16,
                        "NORMAL" : 17,
                        "TEXCOORD_0" : 18
                    },
                    "indices" : 19,
                    "material" : 1
                }
            ]
        }
    ],
    "textures" : [
        {
            "source" : 0
        },
        {
            "source" : 0
        },
        {
            "source" : 1
        },
        {
            "source" : 1
        }
    ],
    "images" : [
        {
            "mimeType" : "image/jpeg",
            "name" : "PAN_044_PLATE_baked",
            "uri" : "PAN_044_PLATE_baked.jpg"
        },
        {
            "mimeType" : "image/jpeg",
            "name" : "PAN_044_baked",
            "uri" : "PAN_044_baked.jpg"
        }
    ],
    "accessors" : [
        {
            "bufferView" : 0,
            "componentType" : 5126,
            "count" : 4448,
            "max" : [
                39.64302062988281,
                51.08546829223633,
                0.6938542127609253
            ],
            "min" : [
                -40.040348052978516,
                -50.84505844116211,
                -1.451729655265808
            ],
            "type" : "VEC3"
        },
        {
            "bufferView" : 1,
            "componentType" : 5126,
            "count" : 4448,
            "type" : "VEC3"
        },
        {
            "bufferView" : 2,
            "componentType" : 5126,
            "count" : 4448,
            "type" : "VEC2"
        },
        {
            "bufferView" : 3,
            "componentType" : 5123,
            "count" : 6186,
            "type" : "SCALAR"
        },
        {
            "bufferView" : 4,
            "componentType" : 5126,
            "count" : 65534,
            "max" : [
                11.910443305969238,
                11.325809478759766,
                13.036806106567383
            ],
            "min" : [
                -12.043331146240234,
                4.3844146728515625,
                -11.463220596313477
            ],
            "type" : "VEC3"
        },
        {
            "bufferView" : 5,
            "componentType" : 5126,
            "count" : 65534,
            "type" : "VEC3"
        },
        {
            "bufferView" : 6,
            "componentType" : 5126,
            "count" : 65534,
            "type" : "VEC2"
        },
        {
            "bufferView" : 7,
            "componentType" : 5123,
            "count" : 66288,
            "type" : "SCALAR"
        },
        {
            "bufferView" : 8,
            "componentType" : 5126,
            "count" : 65532,
            "max" : [
                11.895820617675781,
                11.325809478759766,
                13.036806106567383
            ],
            "min" : [
                -12.054667472839355,
                4.4258880615234375,
                -11.4483003616333
            ],
            "type" : "VEC3"
        },
        {
            "bufferView" : 9,
            "componentType" : 5126,
            "count" : 65532,
            "type" : "VEC3"
        },
        {
            "bufferView" : 10,
            "componentType" : 5126,
            "count" : 65532,
            "type" : "VEC2"
        },
        {
            "bufferView" : 11,
            "componentType" : 5123,
            "count" : 65418,
            "type" : "SCALAR"
        },
        {
            "bufferView" : 12,
            "componentType" : 5126,
            "count" : 31476,
            "max" : [
                25.4589900970459,
                11.313079833984375,
                27.2763729095459
            ],
            "min" : [
                -28.07648468017578,
                -0.3785102665424347,
                -24.24538803100586
            ],
            "type" : "VEC3"
        },
        {
            "bufferView" : 13,
            "componentType" : 5126,
            "count" : 31476,
            "type" : "VEC3"
        },
        {
            "bufferView" : 14,
            "componentType" : 5126,
            "count" : 31476,
            "type" : "VEC2"
        },
        {
            "bufferView" : 15,
            "componentType" : 5123,
            "count" : 52305,
            "type" : "SCALAR"
        },
        {
            "bufferView" : 16,
            "componentType" : 5126,
            "count" : 3084,
            "max" : [
                11.910443305969238,
                11.313079833984375,
                12.4727783203125
            ],
            "min" : [
                -11.975521087646484,
                4.533519744873047,
                -11.449331283569336
            ],
            "type" : "VEC3"
        },
        {
            "bufferView" : 17,
            "componentType" : 5126,
            "count" : 3084,
            "type" : "VEC3"
        },
        {
            "bufferView" : 18,
            "componentType" : 5126,
            "count" : 3084,
            "type" : "VEC2"
        },
        {
            "bufferView" : 19,
            "componentType" : 5123,
            "count" : 3138,
            "type" : "SCALAR"
        },
        {
            "bufferView" : 20,
            "componentType" : 5126,
            "count" : 1,
            "max" : [
                0.03333333333333333
            ],
            "min" : [
                0.03333333333333333
            ],
            "type" : "SCALAR"
        },
        {
            "bufferView" : 21,
            "componentType" : 5126,
            "count" : 1,
            "type" : "VEC3"
        },
        {
            "bufferView" : 22,
            "componentType" : 5126,
            "count" : 1,
            "type" : "VEC4"
        },
        {
            "bufferView" : 23,
            "componentType" : 5126,
            "count" : 1,
            "type" : "VEC3"
        }
    ],
    "bufferViews" : [
        {
            "buffer" : 0,
            "byteLength" : 53376,
            "byteOffset" : 0
        },
        {
            "buffer" : 0,
            "byteLength" : 53376,
            "byteOffset" : 53376
        },
        {
            "buffer" : 0,
            "byteLength" : 35584,
            "byteOffset" : 106752
        },
        {
            "buffer" : 0,
            "byteLength" : 12372,
            "byteOffset" : 142336
        },
        {
            "buffer" : 0,
            "byteLength" : 786408,
            "byteOffset" : 154708
        },
        {
            "buffer" : 0,
            "byteLength" : 786408,
            "byteOffset" : 941116
        },
        {
            "buffer" : 0,
            "byteLength" : 524272,
            "byteOffset" : 1727524
        },
        {
            "buffer" : 0,
            "byteLength" : 132576,
            "byteOffset" : 2251796
        },
        {
            "buffer" : 0,
            "byteLength" : 786384,
            "byteOffset" : 2384372
        },
        {
            "buffer" : 0,
            "byteLength" : 786384,
            "byteOffset" : 3170756
        },
        {
            "buffer" : 0,
            "byteLength" : 524256,
            "byteOffset" : 3957140
        },
        {
            "buffer" : 0,
            "byteLength" : 130836,
            "byteOffset" : 4481396
        },
        {
            "buffer" : 0,
            "byteLength" : 377712,
            "byteOffset" : 4612232
        },
        {
            "buffer" : 0,
            "byteLength" : 377712,
            "byteOffset" : 4989944
        },
        {
            "buffer" : 0,
            "byteLength" : 251808,
            "byteOffset" : 5367656
        },
        {
            "buffer" : 0,
            "byteLength" : 104610,
            "byteOffset" : 5619464
        },
        {
            "buffer" : 0,
            "byteLength" : 37008,
            "byteOffset" : 5724076
        },
        {
            "buffer" : 0,
            "byteLength" : 37008,
            "byteOffset" : 5761084
        },
        {
            "buffer" : 0,
            "byteLength" : 24672,
            "byteOffset" : 5798092
        },
        {
            "buffer" : 0,
            "byteLength" : 6276,
            "byteOffset" : 5822764
        },
        {
            "buffer" : 0,
            "byteLength" : 4,
            "byteOffset" : 5829040
        },
        {
            "buffer" : 0,
            "byteLength" : 12,
            "byteOffset" : 5829044
        },
        {
            "buffer" : 0,
            "byteLength" : 16,
            "byteOffset" : 5829056
        },
        {
            "buffer" : 0,
            "byteLength" : 12,
            "byteOffset" : 5829072
        }
    ],
    "buffers" : [
        {
            "byteLength" : 5829084,
            "uri" : "PAN_044.glb.bin"
        }
    ]
}
