{
    "asset" : {
        "generator" : "Khronos glTF Blender I/O v1.0.5",
        "version" : "2.0"
    },
    "scene" : 0,
    "scenes" : [
        {
            "extras" : {
                "blenderkitUI" : {
                    "assetbar_on" : 0,
                    "turn_off" : 0
                },
                "uuid" : "b910c783-ee8e-4b9b-99e5-5e50339d92eb",
                "glTF2ExportSettings" : {
                    "export_extras" : 1,
                    "export_format" : "GLTF_SEPARATE",
                    "export_selected" : 1
                }
            },
            "name" : "Scene",
            "nodes" : [
                0,
                1
            ]
        }
    ],
    "nodes" : [
        {
            "mesh" : 0,
            "name" : "PAN_PLATE_A2_bottom.004"
        },
        {
            "mesh" : 1,
            "name" : "PAN_038_pro.001"
        }
    ],
    "materials" : [
        {
            "doubleSided" : true,
            "emissiveFactor" : [
                1,
                1,
                1
            ],
            "emissiveTexture" : {
                "index" : 0,
                "texCoord" : 0
            },
            "name" : "PAN_038_PLATE_baked.001",
            "pbrMetallicRoughness" : {
                "baseColorFactor" : [
                    1,
                    1,
                    1,
                    1
                ],
                "baseColorTexture" : {
                    "index" : 1,
                    "texCoord" : 0
                },
                "metallicFactor" : 1,
                "roughnessFactor" : 1
            }
        },
        {
            "doubleSided" : true,
            "emissiveFactor" : [
                1,
                1,
                1
            ],
            "emissiveTexture" : {
                "index" : 2,
                "texCoord" : 0
            },
            "name" : "PAN_038_baked.001",
            "pbrMetallicRoughness" : {
                "baseColorFactor" : [
                    1,
                    1,
                    1,
                    1
                ],
                "baseColorTexture" : {
                    "index" : 3,
                    "texCoord" : 0
                },
                "metallicFactor" : 1,
                "roughnessFactor" : 1
            }
        }
    ],
    "meshes" : [
        {
            "name" : "Mesh.004",
            "primitives" : [
                {
                    "attributes" : {
                        "POSITION" : 0,
                        "NORMAL" : 1,
                        "TEXCOORD_0" : 2
                    },
                    "indices" : 3,
                    "material" : 0
                }
            ]
        },
        {
            "name" : "Mesh.005",
            "primitives" : [
                {
                    "attributes" : {
                        "POSITION" : 4,
                        "NORMAL" : 5,
                        "TEXCOORD_0" : 6
                    },
                    "indices" : 7,
                    "material" : 1
                },
                {
                    "attributes" : {
                        "POSITION" : 8,
                        "NORMAL" : 9,
                        "TEXCOORD_0" : 10
                    },
                    "indices" : 11,
                    "material" : 1
                },
                {
                    "attributes" : {
                        "POSITION" : 12,
                        "NORMAL" : 13,
                        "TEXCOORD_0" : 14
                    },
                    "indices" : 15,
                    "material" : 1
                },
                {
                    "attributes" : {
                        "POSITION" : 16,
                        "NORMAL" : 17,
                        "TEXCOORD_0" : 18
                    },
                    "indices" : 19,
                    "material" : 1
                }
            ]
        }
    ],
    "textures" : [
        {
            "source" : 0
        },
        {
            "source" : 0
        },
        {
            "source" : 1
        },
        {
            "source" : 1
        }
    ],
    "images" : [
        {
            "mimeType" : "image/png",
            "name" : "PAN_038_PLATE_baked",
            "uri" : "PAN_038_PLATE_baked.png"
        },
        {
            "mimeType" : "image/png",
            "name" : "PAN_038_baked",
            "uri" : "PAN_038_baked.png"
        }
    ],
    "accessors" : [
        {
            "bufferView" : 0,
            "componentType" : 5126,
            "count" : 5189,
            "max" : [
                0.3061350882053375,
                0.010883485898375511,
                0.3158317506313324
            ],
            "min" : [
                -0.30910834670066833,
                0.00022886836086399853,
                -0.3017635941505432
            ],
            "type" : "VEC3"
        },
        {
            "bufferView" : 1,
            "componentType" : 5126,
            "count" : 5189,
            "type" : "VEC3"
        },
        {
            "bufferView" : 2,
            "componentType" : 5126,
            "count" : 5189,
            "type" : "VEC2"
        },
        {
            "bufferView" : 3,
            "componentType" : 5123,
            "count" : 6186,
            "type" : "SCALAR"
        },
        {
            "bufferView" : 4,
            "componentType" : 5126,
            "count" : 65533,
            "max" : [
                0.141567200422287,
                0.13623620569705963,
                0.14944900572299957
            ],
            "min" : [
                -0.15103130042552948,
                0.0781642347574234,
                -0.1385897397994995
            ],
            "type" : "VEC3"
        },
        {
            "bufferView" : 5,
            "componentType" : 5126,
            "count" : 65533,
            "type" : "VEC3"
        },
        {
            "bufferView" : 6,
            "componentType" : 5126,
            "count" : 65533,
            "type" : "VEC2"
        },
        {
            "bufferView" : 7,
            "componentType" : 5123,
            "count" : 65835,
            "type" : "SCALAR"
        },
        {
            "bufferView" : 8,
            "componentType" : 5126,
            "count" : 65534,
            "max" : [
                0.141567200422287,
                0.13623620569705963,
                0.14944900572299957
            ],
            "min" : [
                -0.15103130042552948,
                0.0781642347574234,
                -0.1385897397994995
            ],
            "type" : "VEC3"
        },
        {
            "bufferView" : 9,
            "componentType" : 5126,
            "count" : 65534,
            "type" : "VEC3"
        },
        {
            "bufferView" : 10,
            "componentType" : 5126,
            "count" : 65534,
            "type" : "VEC2"
        },
        {
            "bufferView" : 11,
            "componentType" : 5123,
            "count" : 65754,
            "type" : "SCALAR"
        },
        {
            "bufferView" : 12,
            "componentType" : 5126,
            "count" : 25601,
            "max" : [
                0.3067210912704468,
                0.13575305044651031,
                0.31665676832199097
            ],
            "min" : [
                -0.30955377221107483,
                0.007923203520476818,
                -0.30215781927108765
            ],
            "type" : "VEC3"
        },
        {
            "bufferView" : 13,
            "componentType" : 5126,
            "count" : 25601,
            "type" : "VEC3"
        },
        {
            "bufferView" : 14,
            "componentType" : 5126,
            "count" : 25601,
            "type" : "VEC2"
        },
        {
            "bufferView" : 15,
            "componentType" : 5123,
            "count" : 46737,
            "type" : "SCALAR"
        },
        {
            "bufferView" : 16,
            "componentType" : 5126,
            "count" : 3,
            "max" : [
                -0.12445719540119171,
                0.09753915667533875,
                -0.026687217876315117
            ],
            "min" : [
                -0.12495054304599762,
                0.0960194319486618,
                -0.027953965589404106
            ],
            "type" : "VEC3"
        },
        {
            "bufferView" : 17,
            "componentType" : 5126,
            "count" : 3,
            "type" : "VEC3"
        },
        {
            "bufferView" : 18,
            "componentType" : 5126,
            "count" : 3,
            "type" : "VEC2"
        },
        {
            "bufferView" : 19,
            "componentType" : 5123,
            "count" : 3,
            "type" : "SCALAR"
        }
    ],
    "bufferViews" : [
        {
            "buffer" : 0,
            "byteLength" : 62268,
            "byteOffset" : 0
        },
        {
            "buffer" : 0,
            "byteLength" : 62268,
            "byteOffset" : 62268
        },
        {
            "buffer" : 0,
            "byteLength" : 41512,
            "byteOffset" : 124536
        },
        {
            "buffer" : 0,
            "byteLength" : 12372,
            "byteOffset" : 166048
        },
        {
            "buffer" : 0,
            "byteLength" : 786396,
            "byteOffset" : 178420
        },
        {
            "buffer" : 0,
            "byteLength" : 786396,
            "byteOffset" : 964816
        },
        {
            "buffer" : 0,
            "byteLength" : 524264,
            "byteOffset" : 1751212
        },
        {
            "buffer" : 0,
            "byteLength" : 131670,
            "byteOffset" : 2275476
        },
        {
            "buffer" : 0,
            "byteLength" : 786408,
            "byteOffset" : 2407148
        },
        {
            "buffer" : 0,
            "byteLength" : 786408,
            "byteOffset" : 3193556
        },
        {
            "buffer" : 0,
            "byteLength" : 524272,
            "byteOffset" : 3979964
        },
        {
            "buffer" : 0,
            "byteLength" : 131508,
            "byteOffset" : 4504236
        },
        {
            "buffer" : 0,
            "byteLength" : 307212,
            "byteOffset" : 4635744
        },
        {
            "buffer" : 0,
            "byteLength" : 307212,
            "byteOffset" : 4942956
        },
        {
            "buffer" : 0,
            "byteLength" : 204808,
            "byteOffset" : 5250168
        },
        {
            "buffer" : 0,
            "byteLength" : 93474,
            "byteOffset" : 5454976
        },
        {
            "buffer" : 0,
            "byteLength" : 36,
            "byteOffset" : 5548452
        },
        {
            "buffer" : 0,
            "byteLength" : 36,
            "byteOffset" : 5548488
        },
        {
            "buffer" : 0,
            "byteLength" : 24,
            "byteOffset" : 5548524
        },
        {
            "buffer" : 0,
            "byteLength" : 6,
            "byteOffset" : 5548548
        }
    ],
    "buffers" : [
        {
            "byteLength" : 5548556,
            "uri" : "038_v2.bin"
        }
    ]
}
