{
    "asset" : {
        "generator" : "Khronos glTF Blender I/O v0.9.36",
        "version" : "2.0"
    },
    "scene" : 0,
    "scenes" : [
        {
            "name" : "Scene",
            "nodes" : [
                0,
                1
            ]
        }
    ],
    "nodes" : [
        {
            "mesh" : 0,
            "name" : "PAN_PLATE_A2_bottom.001",
            "rotation" : [
                0.653281569480896,
                -0.27059802412986755,
                0.27059805393218994,
                0.6532814502716064
            ],
            "scale" : [
                1.2396535873413086,
                1.2396538257598877,
                1.2396537065505981
            ]
        },
        {
            "mesh" : 1,
            "name" : "PAN_035_pro.001",
            "rotation" : [
                0.653281569480896,
                -0.27059802412986755,
                0.27059805393218994,
                0.6532814502716064
            ],
            "scale" : [
                1.2396535873413086,
                1.2396538257598877,
                1.2396537065505981
            ]
        }
    ],
    "materials" : [
        {
            "doubleSided" : true,
            "emissiveFactor" : [
                1,
                1,
                1
            ],
            "emissiveTexture" : {
                "index" : 0,
                "texCoord" : 0
            },
            "name" : "PAN_035_PLATE_baked.000",
            "pbrMetallicRoughness" : {
                "baseColorTexture" : {
                    "index" : 1,
                    "texCoord" : 0
                },
                "metallicFactor" : 1,
                "roughnessFactor" : 1
            }
        },
        {
            "doubleSided" : true,
            "emissiveFactor" : [
                1,
                1,
                1
            ],
            "emissiveTexture" : {
                "index" : 2,
                "texCoord" : 0
            },
            "name" : "PAN_035_baked.000",
            "pbrMetallicRoughness" : {
                "baseColorTexture" : {
                    "index" : 3,
                    "texCoord" : 0
                },
                "metallicFactor" : 1,
                "roughnessFactor" : 1
            }
        }
    ],
    "meshes" : [
        {
            "name" : "Mesh.008",
            "primitives" : [
                {
                    "attributes" : {
                        "POSITION" : 0,
                        "NORMAL" : 1,
                        "TEXCOORD_0" : 2
                    },
                    "indices" : 3,
                    "material" : 0
                }
            ]
        },
        {
            "name" : "Mesh.009",
            "primitives" : [
                {
                    "attributes" : {
                        "POSITION" : 4,
                        "NORMAL" : 5,
                        "TEXCOORD_0" : 6
                    },
                    "indices" : 7,
                    "material" : 1
                },
                {
                    "attributes" : {
                        "POSITION" : 8,
                        "NORMAL" : 9,
                        "TEXCOORD_0" : 10
                    },
                    "indices" : 11,
                    "material" : 1
                },
                {
                    "attributes" : {
                        "POSITION" : 12,
                        "NORMAL" : 13,
                        "TEXCOORD_0" : 14
                    },
                    "indices" : 15,
                    "material" : 1
                },
                {
                    "attributes" : {
                        "POSITION" : 16,
                        "NORMAL" : 17,
                        "TEXCOORD_0" : 18
                    },
                    "indices" : 19,
                    "material" : 1
                },
                {
                    "attributes" : {
                        "POSITION" : 20,
                        "NORMAL" : 21,
                        "TEXCOORD_0" : 22
                    },
                    "indices" : 23,
                    "material" : 1
                },
                {
                    "attributes" : {
                        "POSITION" : 24,
                        "NORMAL" : 25,
                        "TEXCOORD_0" : 26
                    },
                    "indices" : 27,
                    "material" : 1
                },
                {
                    "attributes" : {
                        "POSITION" : 28,
                        "NORMAL" : 29,
                        "TEXCOORD_0" : 30
                    },
                    "indices" : 31,
                    "material" : 1
                },
                {
                    "attributes" : {
                        "POSITION" : 32,
                        "NORMAL" : 33,
                        "TEXCOORD_0" : 34
                    },
                    "indices" : 35,
                    "material" : 1
                }
            ]
        }
    ],
    "textures" : [
        {
            "source" : 0
        },
        {
            "source" : 0
        },
        {
            "source" : 1
        },
        {
            "source" : 1
        }
    ],
    "images" : [
        {
            "mimeType" : "image/png",
            "name" : "PAN_035_PLATE_baked",
            "uri" : "PAN_035_PLATE_baked.png"
        },
        {
            "mimeType" : "image/png",
            "name" : "PAN_035_baked",
            "uri" : "PAN_035_baked.png"
        }
    ],
    "accessors" : [
        {
            "bufferView" : 0,
            "componentType" : 5126,
            "count" : 5172,
            "max" : [
                0.1654650866985321,
                0.2123589664697647,
                -0.00018765171989798546
            ],
            "min" : [
                -0.1590808629989624,
                -0.20279842615127563,
                -0.008926485665142536
            ],
            "type" : "VEC3"
        },
        {
            "bufferView" : 1,
            "componentType" : 5126,
            "count" : 5172,
            "type" : "VEC3"
        },
        {
            "bufferView" : 2,
            "componentType" : 5126,
            "count" : 5172,
            "type" : "VEC2"
        },
        {
            "bufferView" : 3,
            "componentType" : 5123,
            "count" : 6186,
            "type" : "SCALAR"
        },
        {
            "bufferView" : 4,
            "componentType" : 5126,
            "count" : 65535,
            "max" : [
                0.11611402034759521,
                0.12564638257026672,
                -0.04928699508309364
            ],
            "min" : [
                -0.12014801800251007,
                -0.11217804253101349,
                -0.09125250577926636
            ],
            "type" : "VEC3"
        },
        {
            "bufferView" : 5,
            "componentType" : 5126,
            "count" : 65535,
            "type" : "VEC3"
        },
        {
            "bufferView" : 6,
            "componentType" : 5126,
            "count" : 65535,
            "type" : "VEC2"
        },
        {
            "bufferView" : 7,
            "componentType" : 5123,
            "count" : 65781,
            "type" : "SCALAR"
        },
        {
            "bufferView" : 8,
            "componentType" : 5126,
            "count" : 461,
            "max" : [
                0.1084803119301796,
                0.1076233983039856,
                -0.051666874438524246
            ],
            "min" : [
                -0.11237141489982605,
                -0.1079481989145279,
                -0.08579470962285995
            ],
            "type" : "VEC3"
        },
        {
            "bufferView" : 9,
            "componentType" : 5126,
            "count" : 461,
            "type" : "VEC3"
        },
        {
            "bufferView" : 10,
            "componentType" : 5126,
            "count" : 461,
            "type" : "VEC2"
        },
        {
            "bufferView" : 11,
            "componentType" : 5123,
            "count" : 456,
            "type" : "SCALAR"
        },
        {
            "bufferView" : 12,
            "componentType" : 5126,
            "count" : 25,
            "max" : [
                0.10550128668546677,
                0.0888613909482956,
                -0.06308407336473465
            ],
            "min" : [
                -0.11310271918773651,
                -0.060632459819316864,
                -0.08198229968547821
            ],
            "type" : "VEC3"
        },
        {
            "bufferView" : 13,
            "componentType" : 5126,
            "count" : 25,
            "type" : "VEC3"
        },
        {
            "bufferView" : 14,
            "componentType" : 5126,
            "count" : 25,
            "type" : "VEC2"
        },
        {
            "bufferView" : 15,
            "componentType" : 5123,
            "count" : 27,
            "type" : "SCALAR"
        },
        {
            "bufferView" : 16,
            "componentType" : 5126,
            "count" : 65534,
            "max" : [
                0.11611402034759521,
                0.12564638257026672,
                -0.04928699508309364
            ],
            "min" : [
                -0.12014801800251007,
                -0.11203794181346893,
                -0.09125250577926636
            ],
            "type" : "VEC3"
        },
        {
            "bufferView" : 17,
            "componentType" : 5126,
            "count" : 65534,
            "type" : "VEC3"
        },
        {
            "bufferView" : 18,
            "componentType" : 5126,
            "count" : 65534,
            "type" : "VEC2"
        },
        {
            "bufferView" : 19,
            "componentType" : 5123,
            "count" : 65736,
            "type" : "SCALAR"
        },
        {
            "bufferView" : 20,
            "componentType" : 5126,
            "count" : 285,
            "max" : [
                0.08820612728595734,
                0.09953664243221283,
                -0.051666874438524246
            ],
            "min" : [
                -0.10273461043834686,
                -0.09312775731086731,
                -0.084998220205307
            ],
            "type" : "VEC3"
        },
        {
            "bufferView" : 21,
            "componentType" : 5126,
            "count" : 285,
            "type" : "VEC3"
        },
        {
            "bufferView" : 22,
            "componentType" : 5126,
            "count" : 285,
            "type" : "VEC2"
        },
        {
            "bufferView" : 23,
            "componentType" : 5123,
            "count" : 285,
            "type" : "SCALAR"
        },
        {
            "bufferView" : 24,
            "componentType" : 5126,
            "count" : 3,
            "max" : [
                0.018527410924434662,
                0.09201265871524811,
                -0.0729336142539978
            ],
            "min" : [
                0.015614096075296402,
                0.09053006023168564,
                -0.07341606169939041
            ],
            "type" : "VEC3"
        },
        {
            "bufferView" : 25,
            "componentType" : 5126,
            "count" : 3,
            "type" : "VEC3"
        },
        {
            "bufferView" : 26,
            "componentType" : 5126,
            "count" : 3,
            "type" : "VEC2"
        },
        {
            "bufferView" : 27,
            "componentType" : 5123,
            "count" : 3,
            "type" : "SCALAR"
        },
        {
            "bufferView" : 28,
            "componentType" : 5126,
            "count" : 37548,
            "max" : [
                0.16584527492523193,
                0.21281090378761292,
                -0.00649851281195879
            ],
            "min" : [
                -0.15927980840206146,
                -0.20317792892456055,
                -0.09059281647205353
            ],
            "type" : "VEC3"
        },
        {
            "bufferView" : 29,
            "componentType" : 5126,
            "count" : 37548,
            "type" : "VEC3"
        },
        {
            "bufferView" : 30,
            "componentType" : 5126,
            "count" : 37548,
            "type" : "VEC2"
        },
        {
            "bufferView" : 31,
            "componentType" : 5123,
            "count" : 52878,
            "type" : "SCALAR"
        },
        {
            "bufferView" : 32,
            "componentType" : 5126,
            "count" : 12,
            "max" : [
                0.022861097007989883,
                0.05994551628828049,
                -0.0705665573477745
            ],
            "min" : [
                -0.10311788320541382,
                -0.04225362464785576,
                -0.08178674429655075
            ],
            "type" : "VEC3"
        },
        {
            "bufferView" : 33,
            "componentType" : 5126,
            "count" : 12,
            "type" : "VEC3"
        },
        {
            "bufferView" : 34,
            "componentType" : 5126,
            "count" : 12,
            "type" : "VEC2"
        },
        {
            "bufferView" : 35,
            "componentType" : 5123,
            "count" : 12,
            "type" : "SCALAR"
        }
    ],
    "bufferViews" : [
        {
            "buffer" : 0,
            "byteLength" : 62064,
            "byteOffset" : 0
        },
        {
            "buffer" : 0,
            "byteLength" : 62064,
            "byteOffset" : 62064
        },
        {
            "buffer" : 0,
            "byteLength" : 41376,
            "byteOffset" : 124128
        },
        {
            "buffer" : 0,
            "byteLength" : 12372,
            "byteOffset" : 165504
        },
        {
            "buffer" : 0,
            "byteLength" : 786420,
            "byteOffset" : 177876
        },
        {
            "buffer" : 0,
            "byteLength" : 786420,
            "byteOffset" : 964296
        },
        {
            "buffer" : 0,
            "byteLength" : 524280,
            "byteOffset" : 1750716
        },
        {
            "buffer" : 0,
            "byteLength" : 131562,
            "byteOffset" : 2274996
        },
        {
            "buffer" : 0,
            "byteLength" : 5532,
            "byteOffset" : 2406560
        },
        {
            "buffer" : 0,
            "byteLength" : 5532,
            "byteOffset" : 2412092
        },
        {
            "buffer" : 0,
            "byteLength" : 3688,
            "byteOffset" : 2417624
        },
        {
            "buffer" : 0,
            "byteLength" : 912,
            "byteOffset" : 2421312
        },
        {
            "buffer" : 0,
            "byteLength" : 300,
            "byteOffset" : 2422224
        },
        {
            "buffer" : 0,
            "byteLength" : 300,
            "byteOffset" : 2422524
        },
        {
            "buffer" : 0,
            "byteLength" : 200,
            "byteOffset" : 2422824
        },
        {
            "buffer" : 0,
            "byteLength" : 54,
            "byteOffset" : 2423024
        },
        {
            "buffer" : 0,
            "byteLength" : 786408,
            "byteOffset" : 2423080
        },
        {
            "buffer" : 0,
            "byteLength" : 786408,
            "byteOffset" : 3209488
        },
        {
            "buffer" : 0,
            "byteLength" : 524272,
            "byteOffset" : 3995896
        },
        {
            "buffer" : 0,
            "byteLength" : 131472,
            "byteOffset" : 4520168
        },
        {
            "buffer" : 0,
            "byteLength" : 3420,
            "byteOffset" : 4651640
        },
        {
            "buffer" : 0,
            "byteLength" : 3420,
            "byteOffset" : 4655060
        },
        {
            "buffer" : 0,
            "byteLength" : 2280,
            "byteOffset" : 4658480
        },
        {
            "buffer" : 0,
            "byteLength" : 570,
            "byteOffset" : 4660760
        },
        {
            "buffer" : 0,
            "byteLength" : 36,
            "byteOffset" : 4661332
        },
        {
            "buffer" : 0,
            "byteLength" : 36,
            "byteOffset" : 4661368
        },
        {
            "buffer" : 0,
            "byteLength" : 24,
            "byteOffset" : 4661404
        },
        {
            "buffer" : 0,
            "byteLength" : 6,
            "byteOffset" : 4661428
        },
        {
            "buffer" : 0,
            "byteLength" : 450576,
            "byteOffset" : 4661436
        },
        {
            "buffer" : 0,
            "byteLength" : 450576,
            "byteOffset" : 5112012
        },
        {
            "buffer" : 0,
            "byteLength" : 300384,
            "byteOffset" : 5562588
        },
        {
            "buffer" : 0,
            "byteLength" : 105756,
            "byteOffset" : 5862972
        },
        {
            "buffer" : 0,
            "byteLength" : 144,
            "byteOffset" : 5968728
        },
        {
            "buffer" : 0,
            "byteLength" : 144,
            "byteOffset" : 5968872
        },
        {
            "buffer" : 0,
            "byteLength" : 96,
            "byteOffset" : 5969016
        },
        {
            "buffer" : 0,
            "byteLength" : 24,
            "byteOffset" : 5969112
        }
    ],
    "buffers" : [
        {
            "byteLength" : 5969136,
            "uri" : "036_v2.bin"
        }
    ]
}
